# xmcd CD database file
#
# Track frame offsets:
#	150
#	18937
#	27005
#	33680
#
# Disc length: 562 seconds
#
# Revision: 0
# Processed by: cddbd v1.5.2PL0 Copyright (c) Steve Scherf et al.
# Submitted via: Feurio! 1.68 - http://www.feurio.com
#
DISCID=25023004
DTITLE=Chris Thomas - 21st Century Blues
DYEAR=1900
DGENRE=
TTITLE0=Kickin' True Blue
TTITLE1=21st Century Blues (excerpt)
TTITLE2=Time Bomb (excerpt)
TTITLE3=Kkkrossroad (unplugged excerpt)
EXTD=maxi
EXTT0=
EXTT1=
EXTT2=
EXTT3=
PLAYORDER=
